# AST/ASF file generated using VICON BodyLanguage
# -----------------------------------------------
:version 1.10
:name VICON
:units
  mass 1.0
  length 0.45
  angle deg
:documentation
   .ast/.asf automatically generated from VICON data using
   VICON BodyBuilder and BodyLanguage model FoxedUp or BRILLIANT.MOD
:root
   order TX TY TZ RX RY RZ
   axis XYZ
   position 0 0 0  
   orientation 0 0 0 
:bonedata
  begin
     id 1 
     name lhipjoint
     direction 0.646657 -0.683706 0.338203 
     length 2.4948 
     axis 0 0 0  XYZ
  end
  begin
     id 2 
     name lfemur
     direction 0.34202 -0.939693 0  
     length 6.79491  
     axis 0 0 20  XYZ
    dof rx ry rz
    limits (-160.0 20.0)
           (-70.0 70.0)
           (-60.0 70.0)
  end
  begin
     id 3 
     name ltibia
     direction 0.34202 -0.939693 0   
     length 7.56807   
     axis 0 0 20   XYZ
    dof rx
    limits (-10.0 170.0)
  end
  begin
     id 4 
     name lfoot
     direction 0.0679796 -0.186772 0.980048   
     length 2.53018   
     axis -90 7.62852e-016 20   XYZ
    dof rx rz
    limits (-45.0 90.0)
           (-70.0 20.0)
  end
  begin
     id 5 
     name ltoes
     direction 1.53625e-011 -4.21881e-011 1   
     length 1.26912   
     axis -90 7.62852e-016 20   XYZ
    dof rx
    limits (-90.0 20.0)
  end
  begin
     id 6 
     name rhipjoint
     direction -0.618868 -0.704065 0.348274   
     length 2.42265  
     axis 0 0 0  XYZ 
  end
  begin
     id 7 
     name rfemur
     direction -0.34202 -0.939693 0   
     length 6.73814   
     axis 0 0 -20   XYZ
    dof rx ry rz
    limits (-160.0 20.0)
           (-70.0 70.0)
           (-70.0 60.0)
  end
  begin
     id 8 
     name rtibia
     direction -0.34202 -0.939693 0   
     length 7.66799   
     axis 0 0 -20   XYZ
    dof rx
    limits (-10.0 170.0)
 end
 begin
     id 9 
     name rfoot
     direction -0.0727352 -0.199838 0.977125   
     length 2.57224  
     axis -90 -7.62852e-016 -20   XYZ
    dof rx rz
    limits (-45.0 90.0)
           (-20.0 70.0)
  end
  begin
     id 10 
     name rtoes
     direction -1.53501e-011 -4.21858e-011 1   
     length 1.28858   
     axis -90 -7.62852e-016 -20   XYZ
    dof rx
    limits (-90.0 20.0)
  end
  begin
     id 11 
     name lowerback
     direction -0.0172471 0.995767 -0.0902851   
     length 2.20206   
     axis 0 0 0   XYZ
    dof rx ry rz
    limits (-20.0 45.0)
           (-30.0 30.0)
           (-30.0 30.0)
  end
  begin
     id 12 
     name upperback
     direction -0.000110737 0.999714 0.0239043   
     length 2.19523   
     axis 0 0 0   XYZ
    dof rx ry rz
    limits (-20.0 45.0)
           (-30.0 30.0)
           (-30.0 30.0)
  end
  begin
     id 13 
     name thorax
     direction 0.00704869 0.997783 0.0661741   
     length 2.21977   
     axis 0 0 0   XYZ
    dof rx ry rz
    limits (-20.0 45.0)
           (-30.0 30.0)
           (-30.0 30.0)
  end
  begin
     id 14 
     name lowerneck
     direction -0.00407501 0.995527 0.0943846   
     length 1.83142   
     axis 0 0 0   XYZ
    dof rx ry rz
    limits (-20.0 45.0)
           (-30.0 30.0)
           (-30.0 30.0)
  end
  begin
     id 15 
     name upperneck
     direction 0.0640586 0.986486 -0.150807   
     length 1.84616   
     axis 0 0 0   XYZ
    dof rx ry rz
    limits (-20.0 45.0)
           (-30.0 30.0)
           (-30.0 30.0)
  end
  begin
     id 16
     name head
     direction 0.0188017 0.99791 -0.0618239  
     length 1.85932  
     axis 0 0 0   XYZ
    dof rx ry rz
    limits (-20.0 45.0)
           (-30.0 30.0)
           (-30.0 30.0)
  end
  begin
     id 17 
     name lclavicle
     direction 0.976074 0.206905 0.066852  
     length 3.81043  
     axis 0 0 0   XYZ
    dof ry rz
    limits (-20.0 10.0)
           (0.0 20.0)
  end
  begin
     id 18 
     name lhumerus
     direction 1 -4.48971e-011 1.86916e-027   
     length 5.37587   
     axis 180 -30 -90   XYZ
    dof rx ry rz
    limits (-60.0 90.0)
           (-90.0 90.0)
           (-90.0 90.0)
  end
  begin
     id 19
     name lradius
     direction 1 -4.48968e-011 1.69187e-027   
     length 3.35977   
     axis 180 -30 -90   XYZ
    dof rx
    limits (-10.0 170.0)
  end
  begin
     id 20
     name lwrist
     direction 1 -4.48968e-011 5.8978e-027   
     length 1.67988   
     axis -3.27506e-015 90 90   XYZ
    dof ry
    limits (-180.0 0.0)
 end
  begin
     id 21 
     name lhand
     direction 1 -4.49028e-011 1.18071e-026   
     length 0.561859   
     axis -7.52654e-015 90 90   XYZ
    dof rx rz
    limits (-90.0 90.0)
           (-45.0 45.0)
  end
  begin
     id 22 
     name lfingers
     direction 1 -4.48927e-011 2.35758e-026   
     length 0.452985   
     axis -1.50534e-014 90 90   XYZ
    dof rx
    limits (0.0 90.0)
  end
  begin
     id 23
     name lthumb
     direction 0.707107 -6.34898e-011 0.707107   
     length 0.650399   
     axis -90 45 5.69224e-014   XYZ
    dof rx rz
    limits (-45.0 45.0)
           (-45.0 45.0)
  end
  begin
     id 24 
     name rclavicle
     direction -0.988403 0.151789 0.00439714   
     length 3.6942  
     axis 0 0 0   XYZ 
    dof ry rz
    limits (-10.0 20.0)
           (-20.0 0.0)
  end
  begin
     id 25 
     name rhumerus
     direction -1 -4.48978e-011 1.62495e-027  
     length 5.22819   
     axis 180 30 90   XYZ
    dof rx ry rz
    limits (-90.0 60.0)
           (-90.0 90.0)
           (-90.0 90.0)
  end
  begin
     id 26 
     name rradius
     direction -1 -4.48961e-011 3.47796e-027   
     length 3.40764   
     axis 180 30 90   XYZ
    dof rx
    limits (-10.0 170.0)
  end
  begin
     id 27 
     name rwrist
     direction -1 -4.48949e-011 5.89602e-027   
     length 1.70382   
     axis -3.27506e-015 -90 -90   XYZ
    dof ry
    limits (-180.0 0.0)
  end
  begin
     id 28
     name rhand
     direction -1 -4.48977e-011 1.17973e-026   
     length 0.583255   
     axis -7.52654e-015 -90 -90   XYZ
    dof rx rz
    limits (-90.0 90.0)
           (-45.0 45.0)
  end
  begin
     id 29
     name rfingers
     direction -1 -4.49099e-011 2.36408e-026   
     length 0.470235   
     axis -1.50534e-014 -90 -90   XYZ
    dof rx
    limits (0.0 90.0)
  end
  begin
     id 30
     name rthumb
     direction -0.707107 -6.35011e-011 0.707107   
     length 0.675167   
     axis -90 -45 -5.69224e-014   XYZ
    dof rx rz
    limits (-45.0 45.0)
           (-45.0 45.0)
  end
:hierarchy
  begin
    root lhipjoint rhipjoint lowerback
    lhipjoint lfemur
    lfemur ltibia
    ltibia lfoot
    lfoot ltoes
    rhipjoint rfemur
    rfemur rtibia
    rtibia rfoot
    rfoot rtoes
    lowerback upperback
    upperback thorax
    thorax lowerneck lclavicle rclavicle
    lowerneck upperneck
    upperneck head
    lclavicle lhumerus
    lhumerus lradius
    lradius lwrist
    lwrist lhand lthumb
    lhand lfingers
    rclavicle rhumerus
    rhumerus rradius
    rradius rwrist
    rwrist rhand rthumb
    rhand rfingers
  end

#!OML:ASF G:\JayActor3\Patient Classification 1\Patient 1\Session 2\male.ASF
:FULLY-SPECIFIED
:DEGREES
1
root 49.3327 16.6829 -7.73976 61.6485 -85.3668 -61.8414
lowerback -3.41339 0.16486 1.71569
upperback 3.40399 0.0112521 1.4392
thorax 5.44137 0.0265342 0.529567
lowerneck -2.68259 -7.53753 -8.83238
upperneck -6.42255 -9.62737 14.2462
head -0.275561 -4.90586 5.58163
rclavicle -1.11133e-014 5.2181e-015
rhumerus -30.735 -7.74039 -83.8166
rradius 25.0337
rwrist -0.688259
rhand -20.4083 6.08271
rfingers 7.12502
rthumb 5.94566 -23.8139
lclavicle -1.11133e-014 5.2181e-015
lhumerus -27.07 -1.74217 90.9449
lradius 22.3311
lwrist 4.09543
lhand -16.1733 19.0266
lfingers 7.12502
lthumb 10.033 48.7674
rfemur -8.55303 3.0504 23.8381
rtibia 31.8621
rfoot -23.3431 -7.57005
rtoes 17.1438
lfemur -5.89291 4.35838 -16.1891
ltibia 25.9173
lfoot -17.6423 6.80909
ltoes -2.07033
2
root 49.3311 16.6822 -7.73891 61.07 -85.383 -61.2773
lowerback -3.43632 0.160434 1.69127
upperback 3.42911 0.00676488 1.4153
thorax 5.48076 0.0241106 0.518351
lowerneck -2.90332 -7.52407 -8.63734
upperneck -6.31643 -9.61086 14.0141
head -0.234313 -4.88846 5.46912
rclavicle 5.77718e-016 -1.55052e-014
rhumerus -30.6953 -7.78617 -83.8264
rradius 25.0195
rwrist -0.667579
rhand -20.4164 6.12796
rfingers 7.12502
rthumb 5.93781 -23.7688
lclavicle 5.77718e-016 -1.55052e-014
lhumerus -26.85 -1.78012 90.9333
lradius 22.1781
lwrist 3.95193
lhand -16.1548 19.0421
lfingers 7.12502
lthumb 10.0508 48.7821
rfemur -8.53232 3.01455 23.79
rtibia 31.8814
rfoot -23.2712 -7.51945
rtoes 17.5972
lfemur -5.85314 4.37873 -16.2283
ltibia 25.8903
lfoot -17.6379 6.75016
ltoes -1.99578
3
root 49.3322 16.6814 -7.73733 61.2254 -85.408 -61.472
lowerback -3.40777 0.170731 1.69591
upperback 3.4369 0.0214138 1.40242
thorax 5.47264 0.0317715 0.503517
lowerneck -2.74507 -7.53875 -8.62689
upperneck -6.43249 -9.63109 13.9276
head -0.297477 -4.90456 5.45043
rclavicle -1.40392e-015 -9.74045e-015
rhumerus -30.6945 -7.79314 -83.8309
rradius 25.0091
rwrist -0.656297
rhand -20.4375 6.11361
rfingers 7.12502
rthumb 5.91744 -23.7838
lclavicle -1.40392e-015 -9.74045e-015
lhumerus -26.6797 -1.71828 90.9204
lradius 22.0613
lwrist 3.7972
lhand -16.1664 19.0922
lfingers 7.12502
lthumb 10.0396 48.8327
rfemur -8.49204 3.00095 23.7662
rtibia 31.8635
rfoot -23.2848 -7.54006
rtoes 17.2525
lfemur -5.82898 4.40346 -16.2469
ltibia 25.9202
lfoot -17.6451 6.76886
ltoes -2.10028
4
root 49.3302 16.6809 -7.73948 61.5785 -85.353 -61.8669
lowerback -3.4094 0.171098 1.73258
upperback 3.45904 0.017612 1.41939
thorax 5.49695 0.0308368 0.5004
lowerneck -2.73985 -7.52603 -8.64712
upperneck -6.40325 -9.61547 14.0371
head -0.283892 -4.89801 5.48665
rclavicle 5.71506e-016 4.47266e-016
rhumerus -30.6798 -7.77267 -83.8556
rradius 25.0292
rwrist -0.686523
rhand -20.418 6.12412
rfingers 7.12502
rthumb 5.93629 -23.7727
lclavicle 5.71506e-016 4.47266e-016
lhumerus -26.4875 -1.78481 90.9412
lradius 21.9621
lwrist 3.83195
lhand -16.2102 19.0561
lfingers 7.12502
lthumb 9.99736 48.7986
rfemur -8.4294 3.08365 23.8619
rtibia 31.8412
rfoot -23.3499 -7.5193
rtoes 17.6132
lfemur -5.8099 4.43263 -16.158
ltibia 25.9505
lfoot -17.64 6.75082
ltoes -2.18352
5
root 49.3281 16.68 -7.74129 61.9919 -85.3108 -62.3366
lowerback -3.3984 0.175817 1.76288
upperback 3.48524 0.0202439 1.43485
thorax 5.51832 0.0328342 0.49978
lowerneck -2.69242 -7.52829 -8.62924
upperneck -6.42813 -9.61969 14.0353
head -0.29941 -4.90256 5.48577
rclavicle -3.32964e-015 2.68359e-015
rhumerus -30.6632 -7.76155 -83.8728
rradius 25.0371
rwrist -0.700638
rhand -20.4146 6.13792
rfingers 7.12502
rthumb 5.93957 -23.7588
lclavicle -3.32964e-015 2.68359e-015
lhumerus -26.3037 -1.83714 90.9575
lradius 21.873
lwrist 3.83199
lhand -16.235 19.0437
lfingers 7.12502
lthumb 9.97345 48.7874
rfemur -8.34741 3.15944 23.945
rtibia 31.8066
rfoot -23.3856 -7.58947
rtoes 17.5524
lfemur -5.78033 4.46058 -16.0803
ltibia 25.9989
lfoot -17.6485 6.7447
ltoes -2.2768
6
root 49.3258 16.6793 -7.74355 62.481 -85.2585 -62.8847
lowerback -3.38495 0.179773 1.79876
upperback 3.51212 0.02117 1.45588
thorax 5.53901 0.0340427 0.501673
lowerneck -2.62819 -7.5323 -8.62659
upperneck -6.4614 -9.62609 14.0526
head -0.317951 -4.90894 5.49391
rclavicle 7.41715e-015 0
rhumerus -30.6456 -7.73785 -83.8938
rradius 25.0513
rwrist -0.724995
rhand -20.4103 6.14992
rfingers 7.12502
rthumb 5.94367 -23.7467
lclavicle 7.41715e-015 0
lhumerus -26.1317 -1.91453 90.9836
lradius 21.8203
lwrist 3.87957
lhand -16.26 19.0245
lfingers 7.12502
lthumb 9.94928 48.7694
rfemur -8.25889 3.25014 24.0458
rtibia 31.7636
rfoot -23.4249 -7.68649
rtoes 17.4294
lfemur -5.75299 4.4868 -15.9872
ltibia 26.0538
lfoot -17.6583 6.74202
ltoes -2.38596
7
root 49.3239 16.6787 -7.74563 62.871 -85.2084 -63.325
lowerback -3.37379 0.180145 1.83021
upperback 3.53658 0.0177009 1.47539
thorax 5.55846 0.0329567 0.504113
lowerneck -2.58219 -7.53455 -8.62624
upperneck -6.48454 -9.62984 14.0714
head -0.33066 -4.91319 5.50193
rclavicle 2.56556e-015 -4.67144e-015
rhumerus -30.6248 -7.70523 -83.9182
rradius 25.072
rwrist -0.75598
rhand -20.4038 6.1625
rfingers 7.12502
rthumb 5.94994 -23.734
lclavicle 2.56556e-015 -4.67144e-015
lhumerus -25.9781 -2.0185 91.0176
lradius 21.8215
lwrist 3.97152
lhand -16.2823 19
lfingers 7.12502
lthumb 9.9278 48.7459
rfemur -8.18294 3.332 24.1378
rtibia 31.7259
rfoot -23.4549 -7.78058
rtoes 17.3238
lfemur -5.7315 4.50605 -15.903
ltibia 26.1008
lfoot -17.6651 6.7381
ltoes -2.47578
8
root 49.3227 16.6784 -7.74709 63.1258 -85.1704 -63.6167
lowerback -3.3637 0.177131 1.85323
upperback 3.55433 0.0108428 1.48915
thorax 5.5714 0.0300292 0.504998
lowerneck -2.54559 -7.53607 -8.62419
upperneck -6.50093 -9.63267 14.076
head -0.340923 -4.91627 5.50488
rclavicle 9.13167e-016 1.04362e-014
rhumerus -30.6043 -7.66489 -83.9446
rradius 25.0975
rwrist -0.790561
rhand -20.3988 6.17076
rfingers 7.12502
rthumb 5.95483 -23.7256
lclavicle 9.13167e-016 1.04362e-014
lhumerus -25.8507 -2.14025 91.058
lradius 21.8822
lwrist 4.09594
lhand -16.306 18.9798
lfingers 7.12502
lthumb 9.90497 48.7268
rfemur -8.12769 3.39232 24.2053
rtibia 31.6967
rfoot -23.4716 -7.86993
rtoes 17.1794
lfemur -5.71798 4.51786 -15.8418
ltibia 26.1366
lfoot -17.6696 6.73387
ltoes -2.53756
9
root 49.3225 16.6783 -7.7477 63.2092 -85.1488 -63.7191
lowerback -3.35763 0.171417 1.86594
upperback 3.56473 0.00180223 1.49388
thorax 5.57886 0.0258886 0.50209
lowerneck -2.52776 -7.53444 -8.62195
upperneck -6.50656 -9.63106 14.0783
head -0.34563 -4.91627 5.5062
rclavicle 3.75827e-015 -1.03368e-014
rhumerus -30.5842 -7.61924 -83.9743
rradius 25.1313
rwrist -0.833224
rhand -20.3927 6.1669
rfingers 7.12502
rthumb 5.96067 -23.7292
lclavicle 3.75827e-015 -1.03368e-014
lhumerus -25.7438 -2.28318 91.1042
lradius 21.997
lwrist 4.25224
lhand -16.331 18.9639
lfingers 7.12502
lthumb 9.88082 48.712
rfemur -8.09927 3.42481 24.2402
rtibia 31.6776
rfoot -23.4749 -7.9105
rtoes 17.168
lfemur -5.71639 4.5238 -15.8104
ltibia 26.159
lfoot -17.6704 6.7253
ltoes -2.56253
10
root 49.3233 16.6786 -7.74735 63.103 -85.1458 -63.6134
lowerback -3.35723 0.16135 1.86623
upperback 3.56808 -0.0115687 1.48982
thorax 5.58208 0.0193874 0.496636
lowerneck -2.53429 -7.52982 -8.61911
upperneck -6.49301 -9.62559 14.0716
head -0.341792 -4.91295 5.50329
rclavicle 3.72721e-017 -2.10712e-014
rhumerus -30.5629 -7.57019 -84.0041
rradius 25.1697
rwrist -0.878071
rhand -20.3866 6.15526
rfingers 7.12502
rthumb 5.96661 -23.7407
lclavicle 3.72721e-017 -2.10712e-014
lhumerus -25.661 -2.43262 91.1542
lradius 22.1691
lwrist 4.42443
lhand -16.3569 18.9498
lfingers 7.12502
lthumb 9.85587 48.6991
rfemur -8.09674 3.42291 24.2377
rtibia 31.668
rfoot -23.4677 -7.92371
rtoes 17.1536
lfemur -5.72711 4.52284 -15.8131
ltibia 26.1693
lfoot -17.6689 6.71467
ltoes -2.54907
11
root 49.3241 16.6788 -7.74699 63.034 -85.144 -63.5448
lowerback -3.35628 0.152053 1.86621
upperback 3.57024 -0.0238613 1.48636
thorax 5.58374 0.0133882 0.492062
lowerneck -2.53777 -7.52531 -8.61589
upperneck -6.47853 -9.62048 14.0638
head -0.338224 -4.90985 5.50008
rclavicle 5.11249e-015 -6.4605e-015
rhumerus -30.543 -7.51818 -84.0333
rradius 25.2108
rwrist -0.927616
rhand -20.3801 6.13863
rfingers 7.12502
rthumb 5.97289 -23.7572
lclavicle 5.11249e-015 -6.4605e-015
lhumerus -25.593 -2.60339 91.2117
lradius 22.3741
lwrist 4.61999
lhand -16.387 18.9366
lfingers 7.12502
lthumb 9.82681 48.6873
rfemur -8.0976 3.42101 24.2352
rtibia 31.6639
rfoot -23.4629 -7.93262
rtoes 17.1405
lfemur -5.7329 4.51963 -15.8162
ltibia 26.1719
lfoot -17.6663 6.70714
ltoes -2.52281
12
root 49.325 16.679 -7.74663 62.9932 -85.143 -63.5035
lowerback -3.35814 0.143806 1.865
upperback 3.57319 -0.0348617 1.48411
thorax 5.58784 0.00796104 0.489536
lowerneck -2.54251 -7.52114 -8.61224
upperneck -6.46302 -9.61585 14.055
head -0.334179 -4.90692 5.49639
rclavicle -3.83282e-015 -1.98785e-014
rhumerus -30.5223 -7.4689 -84.0587
rradius 25.2539
rwrist -0.977957
rhand -20.3749 6.12071
rfingers 7.12502
rthumb 5.97788 -23.775
lclavicle -3.83282e-015 -1.98785e-014
lhumerus -25.5314 -2.7818 91.2723
lradius 22.6052
lwrist 4.8012
lhand -16.3956 18.9508
lfingers 7.12502
lthumb 9.81849 48.7019
rfemur -8.10023 3.41939 24.2327
rtibia 31.6621
rfoot -23.461 -7.93608
rtoes 17.1386
lfemur -5.73743 4.52308 -15.8181
ltibia 26.1708
lfoot -17.661 6.69733
ltoes -2.50201
13
root 49.3259 16.6792 -7.74625 62.9688 -85.1419 -63.4789
lowerback -3.35756 0.135995 1.86276
upperback 3.57517 -0.0452018 1.48336
thorax 5.58953 0.00276645 0.489179
lowerneck -2.54538 -7.5176 -8.60822
upperneck -6.44781 -9.61214 14.0454
head -0.330486 -4.9045 5.49247
rclavicle 1.86361e-015 9.54166e-015
rhumerus -30.5036 -7.42596 -84.0787
rradius 25.2973
rwrist -1.02436
rhand -20.3701 6.10701
rfingers 7.12502
rthumb 5.98247 -23.7885
lclavicle 1.86361e-015 9.54166e-015
lhumerus -25.4793 -2.94565 91.3262
lradius 22.8655
lwrist 4.91226
lhand -16.3251 19.0442
lfingers 7.12502
lthumb 9.88649 48.7921
rfemur -8.10217 3.4169 24.2307
rtibia 31.659
rfoot -23.4592 -7.93516
rtoes 17.1503
lfemur -5.74181 4.52536 -15.8195
ltibia 26.1704
lfoot -17.6554 6.69122
ltoes -2.49069
14
root 49.3269 16.6794 -7.74584 62.9611 -85.1407 -63.4705
lowerback -3.3571 0.12886 1.86122
upperback 3.57643 -0.0546769 1.48297
thorax 5.59054 -0.00198147 0.488867
lowerneck -2.54295 -7.51401 -8.60392
upperneck -6.43574 -9.60841 14.0384
head -0.32844 -4.90236 5.48957
rclavicle -4.5969e-016 1.78906e-015
rhumerus -30.4861 -7.39062 -84.0944
rradius 25.3392
rwrist -1.06725
rhand -20.3705 6.09746
rfingers 7.12502
rthumb 5.98216 -23.7981
lclavicle -4.5969e-016 1.78906e-015
lhumerus -25.4332 -3.09765 91.374
lradius 23.1465
lwrist 4.96051
lhand -16.1848 19.2078
lfingers 7.12502
lthumb 10.0219 48.9492
rfemur -8.10411 3.4147 24.2291
rtibia 31.6548
rfoot -23.4573 -7.93294
rtoes 17.1648
lfemur -5.74639 4.52936 -15.8201
ltibia 26.1712
lfoot -17.6515 6.68519
ltoes -2.49094
